<svg width="3596" height="1229" viewBox="0 0 3596 1229" fill="none" xmlns="http://www.w3.org/2000/svg">
<path d="M421 525.4H428.2V522.4C428.2 508.6 439.6 497.8 453.4 497.8C458.2 497.8 463 499 467.2 502L467.8 502.6C487 517 511 525.4 535.6 526H537.4C537.4 526 538.6 526 539.2 526C539.2 526 539.8 526 540.4 526H541C541.6 526 542.2 526 542.2 526C572.8 525.4 601 512.8 622.6 491.8C646.6 467.8 658.6 435.4 656.8 401.8C654.4 354.4 625.6 327.4 622.6 324.4L471.4 197.2C463.6 191.2 454 181 451.6 169C448.6 152.2 454 136.6 460.6 130C471.4 119.2 484 110.8 498.4 104.8C511.6 100 524.8 97.6 539.2 97.6C539.8 97.6 540.4 97.6 541 97.6C565 97.6 587.2 106 606.4 120.4C606.4 120.4 609.4 122.8 610 123.4C610 123.4 610.6 123.4 610.6 124C611.2 124 611.2 124.6 611.8 124.6L612.4 125.2C613 125.8 613.6 126.4 613.6 126.4C614.2 127 614.2 127 614.8 127.6L615.4 128.2C616 128.8 616.6 129.4 617.2 130C638.2 150.4 649.6 178.6 649.6 208V211H657.4V90.4H649.6V93.4C649.6 107.2 638.2 118 625 118C619.6 118 614.8 116.8 610.6 113.8C590.8 98.2 566.8 90.4 541 89.8C540.4 89.8 539.8 89.8 539.2 89.8C524.2 89.8 509.2 92.2 495.4 97.6C480.4 103.6 467.2 112.6 455.2 124V124.6C443.2 136.6 433.6 151 427.6 167.2V168.4C419.2 191.2 426.4 216.4 445 232C446.2 233.2 562.6 331 592 355.6L599.2 361.6C600.4 362.2 601.6 363.4 602.8 364.6C619.6 382 629.2 404.2 629.2 428.8C629.2 452.8 619.6 475 602.8 492.4C586.6 508.6 565 517.6 542.2 518.8C541.6 518.8 541.6 518.8 541 518.8H540.4C539.8 518.8 539.2 518.8 539.2 518.8C538.6 518.8 538 518.8 537.4 518.8H535.6C511 517.6 487.6 509.2 469 493.6L468.4 493C467.8 492.4 467.2 492.4 466.6 491.8V491.2C466 491.2 465.4 490.6 464.8 490L464.2 489.4C463.6 489.4 463.6 488.8 463 488.2L462.4 487.6C461.8 487 461.2 487 460.6 486.4C443.2 468.4 432.4 446.2 429.4 421C428.8 416.8 428.2 412.6 428.2 407.8V404.8H421V525.4ZM769.506 97.6V89.8H699.906V97.6H713.106V414.4C713.106 446.2 726.306 476.8 749.706 497.8C770.106 515.8 795.906 526 822.906 526C849.906 526 875.706 515.8 895.506 497.8C918.906 476.8 932.706 446.2 932.706 414.4V97.6H945.906V89.8H861.306V97L864.306 97.6C897.906 99.4 924.906 127.6 924.906 161.8V414.4C924.906 443.8 912.306 472 890.106 491.8C871.506 508.6 847.506 518.2 822.906 518.8C806.706 518.2 791.106 512.2 779.106 501.4C764.706 488.8 756.906 470.2 756.306 451.6V97.6H769.506ZM988.773 525.4H995.973V522.4C995.973 508.6 1007.37 497.8 1021.17 497.8C1025.97 497.8 1030.77 499 1034.97 502L1035.57 502.6C1054.77 517 1078.77 525.4 1103.37 526H1105.17C1105.17 526 1106.37 526 1106.97 526C1106.97 526 1107.57 526 1108.17 526H1108.77C1109.37 526 1109.97 526 1109.97 526C1140.57 525.4 1168.77 512.8 1190.37 491.8C1214.37 467.8 1226.37 435.4 1224.57 401.8C1222.17 354.4 1193.37 327.4 1190.37 324.4L1039.17 197.2C1031.37 191.2 1021.77 181 1019.37 169C1016.37 152.2 1021.77 136.6 1028.37 130C1039.17 119.2 1051.77 110.8 1066.17 104.8C1079.37 100 1092.57 97.6 1106.97 97.6C1107.57 97.6 1108.17 97.6 1108.77 97.6C1132.77 97.6 1154.97 106 1174.17 120.4C1174.17 120.4 1177.17 122.8 1177.77 123.4C1177.77 123.4 1178.37 123.4 1178.37 124C1178.97 124 1178.97 124.6 1179.57 124.6L1180.17 125.2C1180.77 125.8 1181.37 126.4 1181.37 126.4C1181.97 127 1181.97 127 1182.57 127.6L1183.17 128.2C1183.77 128.8 1184.37 129.4 1184.97 130C1205.97 150.4 1217.37 178.6 1217.37 208V211H1225.17V90.4H1217.37V93.4C1217.37 107.2 1205.97 118 1192.77 118C1187.37 118 1182.57 116.8 1178.37 113.8C1158.57 98.2 1134.57 90.4 1108.77 89.8C1108.17 89.8 1107.57 89.8 1106.97 89.8C1091.97 89.8 1076.97 92.2 1063.17 97.6C1048.17 103.6 1034.97 112.6 1022.97 124V124.6C1010.97 136.6 1001.37 151 995.373 167.2V168.4C986.973 191.2 994.173 216.4 1012.77 232C1013.97 233.2 1130.37 331 1159.77 355.6L1166.97 361.6C1168.17 362.2 1169.37 363.4 1170.57 364.6C1187.37 382 1196.97 404.2 1196.97 428.8C1196.97 452.8 1187.37 475 1170.57 492.4C1154.37 508.6 1132.77 517.6 1109.97 518.8C1109.37 518.8 1109.37 518.8 1108.77 518.8H1108.17C1107.57 518.8 1106.97 518.8 1106.97 518.8C1106.37 518.8 1105.77 518.8 1105.17 518.8H1103.37C1078.77 517.6 1055.37 509.2 1036.77 493.6L1036.17 493C1035.57 492.4 1034.97 492.4 1034.37 491.8V491.2C1033.77 491.2 1033.17 490.6 1032.57 490L1031.97 489.4C1031.37 489.4 1031.37 488.8 1030.77 488.2L1030.17 487.6C1029.57 487 1028.97 487 1028.37 486.4C1010.97 468.4 1000.17 446.2 997.173 421C996.573 416.8 995.973 412.6 995.973 407.8V404.8H988.773V525.4ZM1429.08 89.8C1428.48 89.8 1286.28 89.8 1270.08 89.8H1267.68V97.6H1280.88V518.8H1267.68V526.6H1337.28V518.8H1324.08V313.6C1329.48 327.4 1337.88 340 1348.68 350.8C1369.68 371.8 1397.88 383.8 1427.28 383.8C1427.88 383.8 1428.48 383.2 1429.08 383.2C1450.08 383.2 1470.48 378.4 1489.68 370C1508.28 361 1523.88 349 1537.68 334C1561.08 307 1574.28 272.2 1574.28 236.8C1574.28 200.8 1561.08 166.6 1537.68 139.6C1523.88 124 1508.28 112 1489.68 103.6C1470.48 94.6 1450.68 89.8 1429.68 89.8H1429.08ZM1427.28 376C1400.28 376 1374.48 365.2 1354.68 346C1335.48 326.8 1324.68 301 1324.08 273.4V97.6H1427.28C1427.88 97.6 1428.48 97.6 1429.08 97.6C1456.08 97.6 1481.28 108.4 1500.48 127.6C1519.68 146.8 1530.48 172 1531.08 199V274C1530.48 301 1519.68 326.2 1500.48 345.4C1481.28 364.6 1456.08 375.4 1429.08 376C1429.08 376 1427.88 376 1427.28 376ZM1617.48 518.8V526H1852.68V451.6H1844.88V454C1844.88 488.2 1818.48 516.4 1784.28 518.8H1673.88V311.8H1742.88C1763.88 313 1780.68 330.4 1780.68 351.4V354.4H1788.48V261.4H1780.68V264.4C1780.68 285.4 1763.88 302.8 1742.88 304H1673.88V97.6H1784.28C1818.48 99.4 1844.88 127.6 1844.88 161.8V164.8H1852.68V89.8H1617.48V97.6H1630.68V518.8H1617.48ZM1895.22 97.6H1908.42V518.8H1895.22V526H1979.22V518.8H1976.82C1942.62 516.4 1916.22 488.2 1916.22 454V108.4L2146.02 526H2187.42V97.6H2200.62V89.8H2116.62V97L2119.02 97.6C2153.22 99.4 2179.62 127.6 2179.62 161.8V507.4L1949.82 89.8H1895.22V97.6ZM2243.85 89.8V97.6H2257.05V518.8H2243.85V526.6H2297.25L2300.25 526H2300.85C2330.25 526 2358.45 520 2385.45 508.6C2411.25 497.2 2434.05 481.6 2453.85 461.8C2473.65 441.4 2489.25 418 2500.05 392.2C2511.45 365.8 2516.85 337 2516.85 308.2C2516.85 278.8 2511.45 250 2500.05 223.6C2489.25 197.8 2473.65 174.4 2453.85 154.6C2434.05 134.2 2411.25 118.6 2385.45 107.2C2358.45 95.8 2330.25 89.8 2300.85 89.8H2243.85ZM2300.25 97.6H2300.85C2347.05 98.2 2390.25 120.4 2422.65 159.4C2455.65 199.6 2473.65 251.8 2473.65 308.2C2473.65 364 2455.65 416.8 2422.65 456.4C2390.25 496 2347.05 517.6 2300.85 518.8H2300.25V97.6ZM589.6 816.2L564.4 807.8C584.8 804.2 604 794.6 619 780.8C643 759.8 656.2 729.2 656.2 697.4C656.2 665.6 643 635.6 619 614C599.2 596 573.4 585.8 546.4 585.8H421V593.6H434.2V1014.8H421V1022H490.6V1014.8H477.4L478 878.6C478 841.4 507.4 811.4 543.4 809.6L611.2 1014.8H599.2V1022H669.4V1014.8H655L589.6 816.2ZM477.4 846.2V593.6H546.4C562.6 593.6 578.2 599.6 590.2 610.4C604 623.6 612.4 641.6 613 660.8V734.6C612.4 753.8 604 771.8 590.2 784.4C577.6 795.8 562 801.8 546.4 801.8C516.4 801.8 489.4 819.8 477.4 846.2ZM712.797 1014.8V1022H947.997V947.6H940.197V950C940.197 984.2 913.797 1012.4 879.597 1014.8H769.197V807.8H838.197C859.197 809 875.997 826.4 875.997 847.4V850.4H883.797V757.4H875.997V760.4C875.997 781.4 859.197 798.8 838.197 800H769.197V593.6H879.597C913.797 595.4 940.197 623.6 940.197 657.8V660.8H947.997V585.8H712.797V593.6H725.997V1014.8H712.797ZM1149.53 879.2L1193.33 1022H1249.13V1014.8H1234.73L1102.73 585.8H1058.93L1080.53 657.2L1007.33 987.8C1003.13 1003.4 988.731 1014.8 971.931 1014.8H969.531V1022H1039.13V1014.8H1009.13L1039.13 879.2H1149.53ZM1040.93 871.4L1085.33 671.6L1147.13 871.4H1040.93ZM1664.2 672.8C1651 655.4 1635.4 640.4 1617.4 627.2C1580.8 600.2 1537 586.4 1491.4 585.8H1487.2C1457.8 585.8 1429.6 591.8 1402.6 603.2C1376.8 614.6 1354 630.2 1334.2 650.6C1314.4 670.4 1298.8 693.8 1288 719.6C1276.6 746 1271.2 774.8 1271.2 804.2C1271.2 833 1276.6 861.8 1288 888.2C1298.8 914 1314.4 937.4 1334.2 957.8C1354 977.6 1376.8 993.2 1402.6 1004.6C1429.6 1016 1457.8 1022 1486.6 1022H1487.2H1491.4C1530.4 1022 1568.2 1011.2 1601.2 991.4C1633.6 972.2 1660 944.6 1678.6 912.2L1680.4 909.8L1673.8 906.2L1672 908.6C1654 939.8 1628.2 966.2 1597.6 984.8C1565.2 1004 1528.6 1014.2 1491.4 1014.8H1487.2C1441 1013.6 1397.8 992 1364.8 952.4C1332.4 912.8 1314.4 860 1314.4 804.2C1314.4 747.8 1332.4 695.6 1364.8 655.4C1397.8 616.4 1441 594.2 1487.2 593.6H1491.4C1528 594.2 1562.8 608 1591.6 633.2C1621 658.4 1642 693.2 1654 733.4L1655.2 736.4H1697.2L1695.4 731C1687.6 710.6 1677.4 690.8 1664.2 672.8ZM1976.35 660.8V585.8H1739.95V660.8H1747.15V657.8C1747.15 623.6 1774.15 595.4 1807.75 593.6H1835.95V1014.8H1822.75V1022H1892.95V1014.8H1879.75V593.6H1907.95C1941.55 595.4 1968.55 623.6 1968.55 657.8V660.8H1976.35Z" fill="black"/>
<rect x="2645" y="100" width="551" height="8" fill="black"/>
</svg>
