<svg width="3447" height="1333" viewBox="0 0 3447 1333" fill="none" xmlns="http://www.w3.org/2000/svg">
<path d="M400 635.6H407.2V632.6C407.2 618.8 418.6 608 432.4 608C437.2 608 442 609.2 446.2 612.2L446.8 612.8C466 627.2 490 635.6 514.6 636.2H516.4C516.4 636.2 517.6 636.2 518.2 636.2C518.2 636.2 518.8 636.2 519.4 636.2H520C520.6 636.2 521.2 636.2 521.2 636.2C551.8 635.6 580 623 601.6 602C625.6 578 637.6 545.6 635.8 512C633.4 464.6 604.6 437.6 601.6 434.6L450.4 307.4C442.6 301.4 433 291.2 430.6 279.2C427.6 262.4 433 246.8 439.6 240.2C450.4 229.4 463 221 477.4 215C490.6 210.2 503.8 207.8 518.2 207.8C518.8 207.8 519.4 207.8 520 207.8C544 207.8 566.2 216.2 585.4 230.6C585.4 230.6 588.4 233 589 233.6C589 233.6 589.6 233.6 589.6 234.2C590.2 234.2 590.2 234.8 590.8 234.8L591.4 235.4C592 236 592.6 236.6 592.6 236.6C593.2 237.2 593.2 237.2 593.8 237.8L594.4 238.4C595 239 595.6 239.6 596.2 240.2C617.2 260.6 628.6 288.8 628.6 318.2V321.2H636.4V200.6H628.6V203.6C628.6 217.4 617.2 228.2 604 228.2C598.6 228.2 593.8 227 589.6 224C569.8 208.4 545.8 200.6 520 200C519.4 200 518.8 200 518.2 200C503.2 200 488.2 202.4 474.4 207.8C459.4 213.8 446.2 222.8 434.2 234.2V234.8C422.2 246.8 412.6 261.2 406.6 277.4V278.6C398.2 301.4 405.4 326.6 424 342.2C425.2 343.4 541.6 441.2 571 465.8L578.2 471.8C579.4 472.4 580.6 473.6 581.8 474.8C598.6 492.2 608.2 514.4 608.2 539C608.2 563 598.6 585.2 581.8 602.6C565.6 618.8 544 627.8 521.2 629C520.6 629 520.6 629 520 629H519.4C518.8 629 518.2 629 518.2 629C517.6 629 517 629 516.4 629H514.6C490 627.8 466.6 619.4 448 603.8L447.4 603.2C446.8 602.6 446.2 602.6 445.6 602V601.4C445 601.4 444.4 600.8 443.8 600.2L443.2 599.6C442.6 599.6 442.6 599 442 598.4L441.4 597.8C440.8 597.2 440.2 597.2 439.6 596.6C422.2 578.6 411.4 556.4 408.4 531.2C407.8 527 407.2 522.8 407.2 518V515H400V635.6Z" fill="black"/>
<path d="M748.506 207.8V200H678.906V207.8H692.106V524.6C692.106 556.4 705.306 587 728.706 608C749.106 626 774.906 636.2 801.906 636.2C828.906 636.2 854.706 626 874.506 608C897.906 587 911.706 556.4 911.706 524.6V207.8H924.906V200H840.306V207.2L843.306 207.8C876.906 209.6 903.906 237.8 903.906 272V524.6C903.906 554 891.306 582.2 869.106 602C850.506 618.8 826.506 628.4 801.906 629C785.706 628.4 770.106 622.4 758.106 611.6C743.706 599 735.906 580.4 735.306 561.8V207.8H748.506Z" fill="black"/>
<path d="M967.773 635.6H974.973V632.6C974.973 618.8 986.373 608 1000.17 608C1004.97 608 1009.77 609.2 1013.97 612.2L1014.57 612.8C1033.77 627.2 1057.77 635.6 1082.37 636.2H1084.17C1084.17 636.2 1085.37 636.2 1085.97 636.2C1085.97 636.2 1086.57 636.2 1087.17 636.2H1087.77C1088.37 636.2 1088.97 636.2 1088.97 636.2C1119.57 635.6 1147.77 623 1169.37 602C1193.37 578 1205.37 545.6 1203.57 512C1201.17 464.6 1172.37 437.6 1169.37 434.6L1018.17 307.4C1010.37 301.4 1000.77 291.2 998.373 279.2C995.373 262.4 1000.77 246.8 1007.37 240.2C1018.17 229.4 1030.77 221 1045.17 215C1058.37 210.2 1071.57 207.8 1085.97 207.8C1086.57 207.8 1087.17 207.8 1087.77 207.8C1111.77 207.8 1133.97 216.2 1153.17 230.6C1153.17 230.6 1156.17 233 1156.77 233.6C1156.77 233.6 1157.37 233.6 1157.37 234.2C1157.97 234.2 1157.97 234.8 1158.57 234.8L1159.17 235.4C1159.77 236 1160.37 236.6 1160.37 236.6C1160.97 237.2 1160.97 237.2 1161.57 237.8L1162.17 238.4C1162.77 239 1163.37 239.6 1163.97 240.2C1184.97 260.6 1196.37 288.8 1196.37 318.2V321.2H1204.17V200.6H1196.37V203.6C1196.37 217.4 1184.97 228.2 1171.77 228.2C1166.37 228.2 1161.57 227 1157.37 224C1137.57 208.4 1113.57 200.6 1087.77 200C1087.17 200 1086.57 200 1085.97 200C1070.97 200 1055.97 202.4 1042.17 207.8C1027.17 213.8 1013.97 222.8 1001.97 234.2V234.8C989.973 246.8 980.373 261.2 974.373 277.4V278.6C965.973 301.4 973.173 326.6 991.773 342.2C992.973 343.4 1109.37 441.2 1138.77 465.8L1145.97 471.8C1147.17 472.4 1148.37 473.6 1149.57 474.8C1166.37 492.2 1175.97 514.4 1175.97 539C1175.97 563 1166.37 585.2 1149.57 602.6C1133.37 618.8 1111.77 627.8 1088.97 629C1088.37 629 1088.37 629 1087.77 629H1087.17C1086.57 629 1085.97 629 1085.97 629C1085.37 629 1084.77 629 1084.17 629H1082.37C1057.77 627.8 1034.37 619.4 1015.77 603.8L1015.17 603.2C1014.57 602.6 1013.97 602.6 1013.37 602V601.4C1012.77 601.4 1012.17 600.8 1011.57 600.2L1010.97 599.6C1010.37 599.6 1010.37 599 1009.77 598.4L1009.17 597.8C1008.57 597.2 1007.97 597.2 1007.37 596.6C989.973 578.6 979.173 556.4 976.173 531.2C975.573 527 974.973 522.8 974.973 518V515H967.773V635.6Z" fill="black"/>
<path d="M1408.08 200C1407.48 200 1265.28 200 1249.08 200H1246.68V207.8H1259.88V629H1246.68V636.8H1316.28V629H1303.08V423.8C1308.48 437.6 1316.88 450.2 1327.68 461C1348.68 482 1376.88 494 1406.28 494C1406.88 494 1407.48 493.4 1408.08 493.4C1429.08 493.4 1449.48 488.6 1468.68 480.2C1487.28 471.2 1502.88 459.2 1516.68 444.2C1540.08 417.2 1553.28 382.4 1553.28 347C1553.28 311 1540.08 276.8 1516.68 249.8C1502.88 234.2 1487.28 222.2 1468.68 213.8C1449.48 204.8 1429.68 200 1408.68 200H1408.08ZM1406.28 486.2C1379.28 486.2 1353.48 475.4 1333.68 456.2C1314.48 437 1303.68 411.2 1303.08 383.6V207.8H1406.28C1406.88 207.8 1407.48 207.8 1408.08 207.8C1435.08 207.8 1460.28 218.6 1479.48 237.8C1498.68 257 1509.48 282.2 1510.08 309.2V384.2C1509.48 411.2 1498.68 436.4 1479.48 455.6C1460.28 474.8 1435.08 485.6 1408.08 486.2C1408.08 486.2 1406.88 486.2 1406.28 486.2Z" fill="black"/>
<path d="M1596.48 629V636.2H1831.68V561.8H1823.88V564.2C1823.88 598.4 1797.48 626.6 1763.28 629H1652.88V422H1721.88C1742.88 423.2 1759.68 440.6 1759.68 461.6V464.6H1767.48V371.6H1759.68V374.6C1759.68 395.6 1742.88 413 1721.88 414.2H1652.88V207.8H1763.28C1797.48 209.6 1823.88 237.8 1823.88 272V275H1831.68V200H1596.48V207.8H1609.68V629H1596.48Z" fill="black"/>
<path d="M1874.22 207.8H1887.42V629H1874.22V636.2H1958.22V629H1955.82C1921.62 626.6 1895.22 598.4 1895.22 564.2V218.6L2125.02 636.2H2166.42V207.8H2179.62V200H2095.62V207.2L2098.02 207.8C2132.22 209.6 2158.62 237.8 2158.62 272V617.6L1928.82 200H1874.22V207.8Z" fill="black"/>
<path d="M2222.85 200V207.8H2236.05V629H2222.85V636.8H2276.25L2279.25 636.2H2279.85C2309.25 636.2 2337.45 630.2 2364.45 618.8C2390.25 607.4 2413.05 591.8 2432.85 572C2452.65 551.6 2468.25 528.2 2479.05 502.4C2490.45 476 2495.85 447.2 2495.85 418.4C2495.85 389 2490.45 360.2 2479.05 333.8C2468.25 308 2452.65 284.6 2432.85 264.8C2413.05 244.4 2390.25 228.8 2364.45 217.4C2337.45 206 2309.25 200 2279.85 200H2222.85ZM2279.25 207.8H2279.85C2326.05 208.4 2369.25 230.6 2401.65 269.6C2434.65 309.8 2452.65 362 2452.65 418.4C2452.65 474.2 2434.65 527 2401.65 566.6C2369.25 606.2 2326.05 627.8 2279.85 629H2279.25V207.8Z" fill="black"/>
<path d="M568.6 926.4L543.4 918C563.8 914.4 583 904.8 598 891C622 870 635.2 839.4 635.2 807.6C635.2 775.8 622 745.8 598 724.2C578.2 706.2 552.4 696 525.4 696H400V703.8H413.2V1125H400V1132.2H469.6V1125H456.4L457 988.8C457 951.6 486.4 921.6 522.4 919.8L590.2 1125H578.2V1132.2H648.4V1125H634L568.6 926.4ZM456.4 956.4V703.8H525.4C541.6 703.8 557.2 709.8 569.2 720.6C583 733.8 591.4 751.8 592 771V844.8C591.4 864 583 882 569.2 894.6C556.6 906 541 912 525.4 912C495.4 912 468.4 930 456.4 956.4Z" fill="black"/>
<path d="M691.797 1125V1132.2H1467.65V1057.8H1459.85V1060.2C1459.85 1094.4 1433.45 1122.6 1399.25 1125H748.197V918H1357.85C1378.85 919.2 1395.65 936.6 1395.65 957.6V960.6H1403.45V867.6H1395.65V870.6C1395.65 891.6 1378.85 909 1357.85 910.2H748.197V703.8H1399.25C1433.45 705.6 1459.85 733.8 1459.85 768V771H1467.65V696H691.797V703.8H704.997V1125H691.797Z" fill="black"/>
<path d="M1669.19 989.4L1712.99 1132.2H1768.79V1125H1754.39L1622.39 696H1578.59L1600.19 767.4L1526.99 1098C1522.79 1113.6 1508.39 1125 1491.59 1125H1489.19V1132.2H1558.79V1125H1528.79L1558.79 989.4H1669.19ZM1560.59 981.6L1604.99 781.8L1666.79 981.6H1560.59Z" fill="black"/>
<path d="M2183.85 783C2170.65 765.6 2155.05 750.6 2137.05 737.4C2100.45 710.4 2056.65 696.6 2011.05 696H2006.85C1977.45 696 1949.25 702 1922.25 713.4C1896.45 724.8 1873.65 740.4 1853.85 760.8C1834.05 780.6 1818.45 804 1807.65 829.8C1796.25 856.2 1790.85 885 1790.85 914.4C1790.85 943.2 1796.25 972 1807.65 998.4C1818.45 1024.2 1834.05 1047.6 1853.85 1068C1873.65 1087.8 1896.45 1103.4 1922.25 1114.8C1949.25 1126.2 1977.45 1132.2 2006.25 1132.2H2006.85H2011.05C2050.05 1132.2 2087.85 1121.4 2120.85 1101.6C2153.25 1082.4 2179.65 1054.8 2198.25 1022.4L2200.05 1020L2193.45 1016.4L2191.65 1018.8C2173.65 1050 2147.85 1076.4 2117.25 1095C2084.85 1114.2 2048.25 1124.4 2011.05 1125H2006.85C1960.65 1123.8 1917.45 1102.2 1884.45 1062.6C1852.05 1023 1834.05 970.2 1834.05 914.4C1834.05 858 1852.05 805.8 1884.45 765.6C1917.45 726.6 1960.65 704.4 2006.85 703.8H2011.05C2047.65 704.4 2082.45 718.2 2111.25 743.4C2140.65 768.6 2161.65 803.4 2173.65 843.6L2174.85 846.6H2216.85L2215.05 841.2C2207.25 820.8 2197.05 801 2183.85 783Z" fill="black"/>
<path d="M2496 771V696H2259.6V771H2266.8V768C2266.8 733.8 2293.8 705.6 2327.4 703.8H2355.6V1125H2342.4V1132.2H2412.6V1125H2399.4V703.8H2427.6C2461.2 705.6 2488.2 733.8 2488.2 768V771H2496Z" fill="black"/>
<rect x="2496" y="200" width="551" height="8" fill="black"/>
</svg>
